<svg xmlns="http://www.w3.org/2000/svg" width="800" height="600" viewBox="0 0 800 600">
  <rect width="800" height="600" fill="#003366"/>
  <circle cx="400" cy="300" r="200" fill="#005599" opacity="0.4"/>
  <circle cx="400" cy="300" r="130" fill="#0077cc" opacity="0.3"/>
  <path d="M100,300 Q400,100 700,300 T400,500 T100,300" fill="none" stroke="#00aaff" stroke-width="2" opacity="0.2"/>
  <circle cx="100" cy="100" r="3" fill="#ffffff"/>
  <circle cx="200" cy="150" r="2" fill="#ffffff"/>
  <circle cx="300" cy="80" r="1" fill="#ffffff"/>
  <circle cx="400" cy="120" r="2" fill="#ffffff"/>
  <circle cx="500" cy="90" r="3" fill="#ffffff"/>
  <circle cx="600" cy="170" r="1" fill="#ffffff"/>
  <circle cx="700" cy="110" r="2" fill="#ffffff"/>
  <circle cx="150" cy="250" r="1" fill="#ffffff"/>
  <circle cx="250" cy="350" r="3" fill="#ffffff"/>
  <circle cx="350" cy="450" r="2" fill="#ffffff"/>
  <circle cx="450" cy="400" r="1" fill="#ffffff"/>
  <circle cx="550" cy="500" r="2" fill="#ffffff"/>
  <circle cx="650" cy="450" r="3" fill="#ffffff"/>
  <circle cx="750" cy="350" r="1" fill="#ffffff"/>
  <path d="M320,280 L350,260 L380,280 L410,260 L440,280" fill="none" stroke="#00ff99" stroke-width="3"/>
</svg>