<svg xmlns="http://www.w3.org/2000/svg" width="800" height="600" viewBox="0 0 800 600">
  <rect width="800" height="600" fill="#331100"/>
  <circle cx="400" cy="300" r="190" fill="#552200" opacity="0.4"/>
  <circle cx="400" cy="300" r="125" fill="#773300" opacity="0.3"/>
  <ellipse cx="400" cy="300" rx="290" ry="55" fill="#994400" opacity="0.2"/>
  <circle cx="110" cy="160" r="2" fill="#ffffff"/>
  <circle cx="210" cy="110" r="3" fill="#ffffff"/>
  <circle cx="310" cy="210" r="1" fill="#ffffff"/>
  <circle cx="410" cy="90" r="2" fill="#ffffff"/>
  <circle cx="510" cy="190" r="3" fill="#ffffff"/>
  <circle cx="610" cy="130" r="1" fill="#ffffff"/>
  <circle cx="710" cy="230" r="2" fill="#ffffff"/>
  <circle cx="140" cy="330" r="3" fill="#ffffff"/>
  <circle cx="240" cy="430" r="1" fill="#ffffff"/>
  <circle cx="340" cy="530" r="2" fill="#ffffff"/>
  <circle cx="440" cy="480" r="1" fill="#ffffff"/>
  <circle cx="540" cy="380" r="3" fill="#ffffff"/>
  <circle cx="640" cy="280" r="2" fill="#ffffff"/>
  <circle cx="740" cy="380" r="1" fill="#ffffff"/>
  <path d="M340,270 Q400,230 460,270 T580,270" fill="none" stroke="#ff6600" stroke-width="3"/>
</svg>