<svg xmlns="http://www.w3.org/2000/svg" width="800" height="600" viewBox="0 0 800 600">
  <rect width="800" height="600" fill="#330033"/>
  <circle cx="400" cy="300" r="180" fill="#550055" opacity="0.4"/>
  <circle cx="400" cy="300" r="120" fill="#770077" opacity="0.3"/>
  <ellipse cx="400" cy="300" rx="280" ry="60" fill="#990099" opacity="0.2"/>
  <circle cx="130" cy="140" r="2" fill="#ffffff"/>
  <circle cx="230" cy="90" r="3" fill="#ffffff"/>
  <circle cx="330" cy="190" r="1" fill="#ffffff"/>
  <circle cx="430" cy="70" r="2" fill="#ffffff"/>
  <circle cx="530" cy="170" r="3" fill="#ffffff"/>
  <circle cx="630" cy="110" r="1" fill="#ffffff"/>
  <circle cx="730" cy="210" r="2" fill="#ffffff"/>
  <circle cx="160" cy="310" r="3" fill="#ffffff"/>
  <circle cx="260" cy="410" r="1" fill="#ffffff"/>
  <circle cx="360" cy="510" r="2" fill="#ffffff"/>
  <circle cx="460" cy="460" r="1" fill="#ffffff"/>
  <circle cx="560" cy="360" r="3" fill="#ffffff"/>
  <circle cx="660" cy="260" r="2" fill="#ffffff"/>
  <circle cx="760" cy="360" r="1" fill="#ffffff"/>
  <path d="M330,290 Q400,240 470,290 T610,290" fill="none" stroke="#ff00ff" stroke-width="3"/>
</svg>