<svg xmlns="http://www.w3.org/2000/svg" width="800" height="600" viewBox="0 0 800 600">
  <rect width="800" height="600" fill="#1a1a40"/>
  <circle cx="400" cy="300" r="150" fill="#3a3a80" opacity="0.5"/>
  <circle cx="400" cy="300" r="100" fill="#5a5ac0" opacity="0.3"/>
  <path d="M200,150 Q400,50 600,150 T800,300 T600,450 T400,550 T200,450 T0,300 T200,150" fill="none" stroke="#8080ff" stroke-width="2" opacity="0.2"/>
  <circle cx="150" cy="120" r="3" fill="#ffffff"/>
  <circle cx="250" cy="80" r="2" fill="#ffffff"/>
  <circle cx="350" cy="180" r="1" fill="#ffffff"/>
  <circle cx="450" cy="90" r="2" fill="#ffffff"/>
  <circle cx="550" cy="150" r="1" fill="#ffffff"/>
  <circle cx="650" cy="100" r="3" fill="#ffffff"/>
  <circle cx="750" cy="200" r="2" fill="#ffffff"/>
  <circle cx="100" cy="300" r="1" fill="#ffffff"/>
  <circle cx="200" cy="400" r="2" fill="#ffffff"/>
  <circle cx="300" cy="500" r="1" fill="#ffffff"/>
  <circle cx="400" cy="450" r="3" fill="#ffffff"/>
  <circle cx="500" cy="350" r="2" fill="#ffffff"/>
  <circle cx="600" cy="250" r="1" fill="#ffffff"/>
  <circle cx="700" cy="350" r="2" fill="#ffffff"/>
  <path d="M300,250 L320,270 L340,250 L360,270 L380,250" fill="none" stroke="#ff6b6b" stroke-width="3"/>
</svg>