<svg xmlns="http://www.w3.org/2000/svg" width="800" height="600" viewBox="0 0 800 600">
  <rect width="800" height="600" fill="#003300"/>
  <circle cx="400" cy="300" r="200" fill="#005500" opacity="0.4"/>
  <circle cx="400" cy="300" r="130" fill="#007700" opacity="0.3"/>
  <ellipse cx="400" cy="300" rx="300" ry="50" fill="#009900" opacity="0.2"/>
  <circle cx="120" cy="150" r="2" fill="#ffffff"/>
  <circle cx="220" cy="100" r="3" fill="#ffffff"/>
  <circle cx="320" cy="200" r="1" fill="#ffffff"/>
  <circle cx="420" cy="80" r="2" fill="#ffffff"/>
  <circle cx="520" cy="180" r="3" fill="#ffffff"/>
  <circle cx="620" cy="120" r="1" fill="#ffffff"/>
  <circle cx="720" cy="220" r="2" fill="#ffffff"/>
  <circle cx="150" cy="320" r="3" fill="#ffffff"/>
  <circle cx="250" cy="420" r="1" fill="#ffffff"/>
  <circle cx="350" cy="520" r="2" fill="#ffffff"/>
  <circle cx="450" cy="470" r="1" fill="#ffffff"/>
  <circle cx="550" cy="370" r="3" fill="#ffffff"/>
  <circle cx="650" cy="270" r="2" fill="#ffffff"/>
  <circle cx="750" cy="370" r="1" fill="#ffffff"/>
  <path d="M350,280 Q400,250 450,280 T550,280" fill="none" stroke="#00ff00" stroke-width="3"/>
</svg>